<svg id="Layer_1" data-name="Layer 1" xmlns="http://www.w3.org/2000/svg" viewBox="0 0 512 512"><title>pdf-file-flat</title><rect y="9.14" width="512" height="493.72" rx="54.99" ry="54.99" transform="translate(512) rotate(90)" fill="#e6d6a6"/><rect x="20.24" y="11.1" width="471.53" height="489.81" rx="43.89" ry="43.89" fill="#b9a468"/><path d="M269.31,91.7l-.05-.05H148a9.39,9.39,0,0,0-9.39,9.39V411a9.39,9.39,0,0,0,9.39,9.39H364a9.39,9.39,0,0,0,9.39-9.39V195.78H269.31Z" fill="#eb5959"/><polygon points="269.31 195.77 373.38 195.77 269.31 91.7 269.31 195.77" fill="#f27878"/><polygon points="373.39 299.85 373.39 195.78 373.38 195.77 269.31 195.77 269.31 195.77 373.39 299.85" fill="#333" opacity="0.1"/><path d="M203.35,354.46v19.27h-12.6V317.79h19.74q21.14,0,21.14,17.83a17.11,17.11,0,0,1-6.06,13.63q-6.07,5.2-16.21,5.21Zm0-27V344.9h5q10.06,0,10.06-8.82,0-8.62-10.06-8.62Z" fill="#eff0f0"/><path d="M237.75,373.73V317.79h19.82q29.8,0,29.8,27.27,0,13.07-8.13,20.87t-21.67,7.8ZM250.35,328v35.46h6.24q8.19,0,12.85-4.92t4.67-13.38q0-8-4.62-12.58t-13-4.58Z" fill="#eff0f0"/><path d="M326.92,328H307.18v13.73h18.14V352H307.18v21.73h-12.6V317.79h32.34Z" fill="#eff0f0"/></svg>