<svg xmlns="http://www.w3.org/2000/svg" shape-rendering="geometricPrecision" text-rendering="geometricPrecision" image-rendering="optimizeQuality" fill-rule="evenodd" clip-rule="evenodd" viewBox="0 0 441 512.399"><path fill="#88BCF4" fill-rule="nonzero" d="M102.78 354.887c-5.727 0-10.372-4.646-10.372-10.373 0-5.727 4.645-10.372 10.372-10.372h85.566a148.234 148.234 0 00-7.597 20.745H102.78zm0-145.37c-5.727 0-10.372-4.645-10.372-10.372s4.645-10.373 10.372-10.373h151.286c5.727 0 10.373 4.646 10.373 10.373 0 5.727-4.646 10.372-10.373 10.372H102.78zm0 72.681c-5.727 0-10.372-4.645-10.372-10.372s4.645-10.372 10.372-10.372h143.271c2.829 0 5.394 1.134 7.264 2.97a149.511 149.511 0 00-25.876 17.774H102.78z"/><path fill="#3C4D7A" d="M324.263 278.925c32.232 0 61.419 13.067 82.545 34.193C427.933 334.242 441 363.43 441 395.66c0 32.236-13.067 61.419-34.192 82.545-21.126 21.126-50.311 34.194-82.545 34.194-32.232 0-61.418-13.068-82.542-34.194-21.126-21.126-34.195-50.312-34.195-82.545 0-32.232 13.069-61.417 34.195-82.542 21.125-21.126 50.308-34.193 82.542-34.193zM60.863 0h174.81c3.382 0 6.384 1.619 8.278 4.124l110.107 119.119a10.288 10.288 0 012.746 7.012h.052v119.818a149.42 149.42 0 00-20.752-3.112v-92.212h-43.666v-.041h-.161c-22.046-.35-39.33-6.223-51.694-16.785-12.849-10.979-20.063-26.614-21.503-46.039a10.145 10.145 0 01-.096-1.404V20.752H60.863c-11.02 0-21.049 4.518-28.321 11.79-7.274 7.272-11.79 17.301-11.79 28.321V399.14c0 11.014 4.521 21.037 11.796 28.311 7.278 7.28 17.31 11.801 28.315 11.801h120.749a148.391 148.391 0 008.116 20.753H60.863c-16.73 0-31.958-6.85-42.987-17.882C6.852 431.1 0 415.883 0 399.14V60.863C0 44.114 6.842 28.894 17.87 17.87 28.894 6.846 44.114 0 60.863 0zm275.018 133.997L239.736 29.983v60.433c1.021 13.737 5.819 24.536 14.302 31.783 8.668 7.404 21.488 11.544 38.4 11.835v-.037h43.443zm-28.8 201.865h17.196a9.433 9.433 0 016.673 2.777 9.427 9.427 0 012.777 6.674v50.82h40.094a9.442 9.442 0 016.679 2.778 9.427 9.427 0 012.798 6.686v17.198c0 2.602-1.073 4.97-2.794 6.688a9.461 9.461 0 01-6.683 2.775H301.33a3.728 3.728 0 01-3.728-3.727v-83.218c0-2.588 1.072-4.958 2.8-6.678a9.461 9.461 0 016.679-2.773z"/></svg>